<svg xmlns="http://www.w3.org/2000/svg" viewBox="0 0 290 72" role="img" aria-labelledby="title desc">
  <title id="title">AgricultureID logo</title>
  <desc id="desc">AgricultureID wordmark with a circular plant and field mark.</desc>
  <g transform="translate(4 4)">
    <circle cx="32" cy="32" r="28" fill="#fdfcf8" stroke="#c7a44a" stroke-width="4"/>
    <path d="M15.5 45.5c8.2-7 19.8-10.1 33-8.1" fill="none" stroke="#234a34" stroke-width="4" stroke-linecap="round"/>
    <path d="M19 50.5c7.5-5 17.1-7.2 28.6-5.9" fill="none" stroke="#c7a44a" stroke-width="3" stroke-linecap="round"/>
    <path d="M25.4 54.2c5.8-3 12.4-4.2 20-3.3" fill="none" stroke="#234a34" stroke-width="2.6" stroke-linecap="round"/>
    <path d="M31.9 41.2V20.4" fill="none" stroke="#234a34" stroke-width="3.8" stroke-linecap="round"/>
    <path d="M32 31.7c-8.1-.4-13.9-6.2-14.2-14.4 8.8.2 14.4 5.7 14.2 14.4z" fill="#7d9440" stroke="#234a34" stroke-width="2" stroke-linejoin="round"/>
    <path d="M32 27.4c7.8-.6 13.2-6.1 13.5-13.7-8.4.2-13.8 5.4-13.5 13.7z" fill="#a8ad50" stroke="#234a34" stroke-width="2" stroke-linejoin="round"/>
    <path d="M24.1 20.7c3.7 2.1 6.1 5.2 7.2 9.2" fill="none" stroke="#f3e7b8" stroke-width="1.4" stroke-linecap="round"/>
    <path d="M39.6 17.6c-3.4 2-5.7 4.8-6.8 8.5" fill="none" stroke="#f3e7b8" stroke-width="1.4" stroke-linecap="round"/>
  </g>
  <text x="82" y="43" fill="#183123" font-family="Georgia, Cambria, 'Times New Roman', serif" font-size="30" font-weight="700" letter-spacing="0">Agriculture</text>
  <text x="236" y="43" fill="#5f7f39" font-family="Georgia, Cambria, 'Times New Roman', serif" font-size="30" font-weight="700" letter-spacing="0">ID</text>
</svg>
